<svg width="91" height="13" viewBox="0 0 91 13" fill="none" xmlns="http://www.w3.org/2000/svg">
<g filter="url(#filter0_iiii_1265_43)">
<path d="M2.79229 7.25965L1.12627 10.7142C1.04345 10.8867 1 11.0759 1 11.2675C1 11.9709 1.57027 12.5413 2.27361 12.5413H88.3648C89.6072 12.5413 90.6147 11.5341 90.6147 10.2917C90.6147 9.0493 89.6072 8.04215 88.3648 8.04215H43.0938C40.9295 8.04215 39.0279 6.60404 38.4392 4.52104C37.85 2.43811 35.949 1 33.784 1H10.973C7.90848 1 5.10327 2.71992 3.71288 5.45113L2.79229 7.25965Z" fill="url(#paint0_linear_1265_43)"/>
<path d="M1.27874 10.7881L2.94407 7.33528L3.86399 5.52832C5.22518 2.854 7.972 1.16992 10.9727 1.16992H33.7837C35.8727 1.16992 37.7071 2.55752 38.2753 4.56747C38.885 6.72352 40.8531 8.21207 43.0935 8.21207H88.3645C89.5132 8.21207 90.4447 9.14325 90.4447 10.2919C90.4447 11.4406 89.5132 12.3718 88.3645 12.3718H2.27332C1.66367 12.3718 1.16943 11.8774 1.16943 11.2677C1.16943 11.1016 1.20678 10.9377 1.27874 10.7881Z" stroke="url(#paint1_linear_1265_43)" stroke-width="0.5"/>
</g>
<defs>
<filter id="filter0_iiii_1265_43" x="0.919434" y="-1.08008" width="89.7754" height="17.7017" filterUnits="userSpaceOnUse" color-interpolation-filters="sRGB">
<feFlood flood-opacity="0" result="BackgroundImageFix"/>
<feBlend mode="normal" in="SourceGraphic" in2="BackgroundImageFix" result="shape"/>
<feColorMatrix in="SourceAlpha" type="matrix" values="0 0 0 0 0 0 0 0 0 0 0 0 0 0 0 0 0 0 127 0" result="hardAlpha"/>
<feOffset dy="1"/>
<feGaussianBlur stdDeviation="0.5"/>
<feComposite in2="hardAlpha" operator="arithmetic" k2="-1" k3="1"/>
<feColorMatrix type="matrix" values="0 0 0 0 0.191648 0 0 0 0 0.172645 0 0 0 0 0.522669 0 0 0 0.12 0"/>
<feBlend mode="normal" in2="shape" result="effect1_innerShadow_1265_43"/>
<feColorMatrix in="SourceAlpha" type="matrix" values="0 0 0 0 0 0 0 0 0 0 0 0 0 0 0 0 0 0 127 0" result="hardAlpha"/>
<feOffset/>
<feGaussianBlur stdDeviation="2"/>
<feComposite in2="hardAlpha" operator="arithmetic" k2="-1" k3="1"/>
<feColorMatrix type="matrix" values="0 0 0 0 0.191648 0 0 0 0 0.172645 0 0 0 0 0.522669 0 0 0 0.04 0"/>
<feBlend mode="normal" in2="effect1_innerShadow_1265_43" result="effect2_innerShadow_1265_43"/>
<feColorMatrix in="SourceAlpha" type="matrix" values="0 0 0 0 0 0 0 0 0 0 0 0 0 0 0 0 0 0 127 0" result="hardAlpha"/>
<feOffset dy="4"/>
<feGaussianBlur stdDeviation="4"/>
<feComposite in2="hardAlpha" operator="arithmetic" k2="-1" k3="1"/>
<feColorMatrix type="matrix" values="0 0 0 0 0.191648 0 0 0 0 0.172645 0 0 0 0 0.522669 0 0 0 0.08 0"/>
<feBlend mode="normal" in2="effect2_innerShadow_1265_43" result="effect3_innerShadow_1265_43"/>
<feColorMatrix in="SourceAlpha" type="matrix" values="0 0 0 0 0 0 0 0 0 0 0 0 0 0 0 0 0 0 127 0" result="hardAlpha"/>
<feOffset dy="-5"/>
<feGaussianBlur stdDeviation="1"/>
<feComposite in2="hardAlpha" operator="arithmetic" k2="-1" k3="1"/>
<feColorMatrix type="matrix" values="0 0 0 0 0.191648 0 0 0 0 0.172645 0 0 0 0 0.522669 0 0 0 0.1 0"/>
<feBlend mode="normal" in2="effect3_innerShadow_1265_43" result="effect4_innerShadow_1265_43"/>
</filter>
<linearGradient id="paint0_linear_1265_43" x1="45.8073" y1="1" x2="45.8073" y2="12.5413" gradientUnits="userSpaceOnUse">
<stop stop-color="#B9C5FF"/>
<stop offset="1" stop-color="#6261FF"/>
</linearGradient>
<linearGradient id="paint1_linear_1265_43" x1="45.807" y1="1.0002" x2="45.807" y2="12.5415" gradientUnits="userSpaceOnUse">
<stop stop-color="#ACBAFF"/>
<stop offset="1" stop-color="white" stop-opacity="0.05"/>
</linearGradient>
</defs>
</svg>
