<svg width="32" height="34" viewBox="0 0 32 34" fill="none" xmlns="http://www.w3.org/2000/svg">
<g clip-path="url(#clip0_1015_26)">
<mask id="mask0_1015_26" style="mask-type:luminance" maskUnits="userSpaceOnUse" x="0" y="0" width="32" height="34">
<path d="M0 0H32V34H0V0Z" fill="white"/>
</mask>
<g mask="url(#mask0_1015_26)">
<mask id="mask1_1015_26" style="mask-type:luminance" maskUnits="userSpaceOnUse" x="0" y="0" width="32" height="34">
<path d="M0 0H32V34H0V0Z" fill="white"/>
</mask>
<g mask="url(#mask1_1015_26)">
<path d="M31.8678 5.71094L30.6777 23.7734L19.7025 0L31.8678 5.71094ZM24.1983 29.0859L16 33.8672L7.66942 29.0859L9.2562 24.9688H22.6116L24.1983 29.0859ZM16 9.03125L20.2314 19.6562H11.6364L16 9.03125ZM1.19008 23.7734L0 5.71094L12.1653 0L1.19008 23.7734Z" fill="url(#paint0_linear_1015_26)"/>
<path d="M31.8678 5.71094L30.6777 23.7734L19.7025 0L31.8678 5.71094ZM24.1983 29.0859L16 33.8672L7.66942 29.0859L9.2562 24.9688H22.6116L24.1983 29.0859ZM16 9.03125L20.2314 19.6562H11.6364L16 9.03125ZM1.19008 23.7734L0 5.71094L12.1653 0L1.19008 23.7734Z" fill="url(#paint1_linear_1015_26)"/>
</g>
</g>
</g>
<defs>
<linearGradient id="paint0_linear_1015_26" x1="7.03471" y1="30.7992" x2="32.4376" y2="18.7731" gradientUnits="userSpaceOnUse">
<stop stop-color="#E40035"/>
<stop offset="0.2" stop-color="#F60A48"/>
<stop offset="0.4" stop-color="#F20755"/>
<stop offset="0.5" stop-color="#DC087D"/>
<stop offset="0.7" stop-color="#9717E7"/>
<stop offset="1" stop-color="#6C00F5"/>
</linearGradient>
<linearGradient id="paint1_linear_1015_26" x1="5.8843" y1="4.07734" x2="22.5617" y2="23.0369" gradientUnits="userSpaceOnUse">
<stop stop-color="#FF31D9"/>
<stop offset="1" stop-color="#FF5BE1" stop-opacity="0"/>
</linearGradient>
<clipPath id="clip0_1015_26">
<rect width="32" height="34" fill="white"/>
</clipPath>
</defs>
</svg>
