<svg width="31" height="34" viewBox="0 0 31 34" fill="none" xmlns="http://www.w3.org/2000/svg">
<path d="M30.0149 0L27.2805 30.5964L14.9891 34L2.73154 30.6012L0 0L30.0149 0Z" fill="#264DE4"/>
<path d="M24.9399 28.6492L27.2766 2.50317L15.0078 2.50317V31.3995L24.9399 28.6492Z" fill="#2965F1"/>
<path d="M6.26062 13.8513L6.5974 17.6043H15.0061V13.8513H6.26062Z" fill="#EBEBEB"/>
<path d="M15.0114 6.25513H14.9984H5.58923L5.93081 10.0083H15.0114V6.25513Z" fill="#EBEBEB"/>
<path d="M15.0069 27.5052V23.6004L14.9904 23.6048L10.8056 22.4761L10.5381 19.4828H8.50461H6.76611L7.29255 25.3758L14.9896 27.51L15.0069 27.5052Z" fill="#EBEBEB"/>
<path d="M19.6201 17.6046L19.1839 22.4721L14.993 23.6019V27.5066L22.6962 25.3742L22.7527 24.7401L23.6357 14.8593L23.7274 13.8515L24.4058 6.25513H14.993V10.0083H20.2878L19.9459 13.8515H14.993V17.6046H19.6201Z" fill="white"/>
</svg>
