<svg width="23" height="34" viewBox="0 0 23 34" fill="none" xmlns="http://www.w3.org/2000/svg">
<g clip-path="url(#clip0_913_745)">
<mask id="mask0_913_745" style="mask-type:luminance" maskUnits="userSpaceOnUse" x="0" y="0" width="23" height="34">
<path d="M22.716 0H0V34H22.716V0Z" fill="white"/>
</mask>
<g mask="url(#mask0_913_745)">
<path d="M5.679 34.0001C8.81381 34.0001 11.358 31.4614 11.358 28.3334V22.6667H5.679C2.5442 22.6667 0 25.2054 0 28.3334C0 31.4614 2.5442 34.0001 5.679 34.0001Z" fill="#0ACF83"/>
<path d="M0 16.9999C0 13.8719 2.5442 11.3333 5.679 11.3333H11.358V22.6666H5.679C2.5442 22.6666 0 20.1279 0 16.9999Z" fill="#A259FF"/>
<path d="M0 5.66665C0 2.53867 2.5442 0 5.679 0H11.358V11.3333H5.679C2.5442 11.3333 0 8.79465 0 5.66665Z" fill="#F24E1E"/>
<path d="M11.3582 0H17.0372C20.172 0 22.7162 2.53867 22.7162 5.66665C22.7162 8.79465 20.172 11.3333 17.0372 11.3333H11.3582V0Z" fill="#FF7262"/>
<path d="M22.7162 16.9999C22.7162 20.1279 20.172 22.6666 17.0372 22.6666C13.9024 22.6666 11.3582 20.1279 11.3582 16.9999C11.3582 13.8719 13.9024 11.3333 17.0372 11.3333C20.172 11.3333 22.7162 13.8719 22.7162 16.9999Z" fill="#1ABCFE"/>
</g>
</g>
<defs>
<clipPath id="clip0_913_745">
<rect width="23" height="34" fill="white"/>
</clipPath>
</defs>
</svg>
