<svg width="33" height="34" viewBox="0 0 33 34" fill="none" xmlns="http://www.w3.org/2000/svg">
<path d="M4.57617 30.5469L1.93359 0H31.002L28.3594 30.5469L16.4355 34" fill="#E34F26"/>
<path d="M16.5 31.3438L26.1035 28.6211L28.3594 2.45703H16.5" fill="#EF652A"/>
<path d="M16.5 13.8125H11.666L11.3438 9.96094H16.5V6.24219H16.4355H7.34766L7.41211 7.23828L8.31445 17.5977H16.5V13.8125ZM16.5 23.5742H16.4355L12.375 22.4453L12.1172 19.457H10.1836H8.50781L8.95898 25.3672L16.4355 27.4922H16.5V23.5742Z" fill="#EBEBEB"/>
<path d="M16.4355 13.8125V17.5977H20.9473L20.4961 22.4453L16.4355 23.5742V27.4922L23.9121 25.3672L23.9766 24.7031L24.8145 14.8086L24.9434 13.8125H23.9121H16.4355ZM16.4355 6.24219V8.56641V9.96094H25.2656L25.3301 9.16406L25.5234 7.23828L25.5879 6.24219H16.4355Z" fill="white"/>
</svg>
