<svg width="28" height="38" viewBox="0 0 28 38" fill="none" xmlns="http://www.w3.org/2000/svg">
<g clip-path="url(#clip0_1022_87)">
<path d="M9.07832 29.3237C9.07832 29.3237 7.54707 30.2023 10.0627 30.5318C13.0158 30.8613 14.5471 30.7515 17.8283 30.2023C17.8283 30.2023 18.7033 30.7515 19.9064 31.1908C12.5783 34.3757 3.17207 30.9711 9.07832 29.3237ZM8.09394 25.2601C8.09394 25.2601 6.45332 26.4682 8.96894 26.6879C12.1408 27.0174 14.6564 27.0174 19.0314 26.2486C19.0314 26.2486 19.6877 26.7977 20.6721 27.1272C11.7033 29.763 1.75019 27.3468 8.09394 25.2601Z" fill="#5382A1"/>
<path d="M15.7501 18.2312C17.6095 20.3179 15.3126 22.185 15.3126 22.185C15.3126 22.185 19.9064 19.7688 17.7189 16.8034C15.7501 13.948 14.2189 12.63 22.5314 7.79767C22.5314 7.79767 9.51573 10.9826 15.7501 18.2312Z" fill="#E76F00"/>
<path d="M25.4842 32.3988C25.4842 32.3988 26.578 33.2774 24.3905 34.0462C20.1249 35.3641 6.56236 35.6936 2.84361 34.0462C1.53111 33.4971 4.04673 32.6185 4.81236 32.5086L6.12486 32.289C4.59361 31.3005 -3.60952 34.3757 1.96861 35.3641C17.0624 37.7803 29.4217 34.2659 25.4842 32.3988ZM9.73423 20.867C9.73423 20.867 2.84361 22.5144 7.32798 23.1734C9.18736 23.393 12.9061 23.393 16.4061 23.0636C19.2499 22.8439 22.0936 22.2948 22.0936 22.2948L20.3436 23.2832C13.3436 25.0404 -0.109518 24.1618 3.82798 22.2948C7.10923 20.7572 9.73423 20.867 9.73423 20.867ZM22.0936 27.7861C29.0936 24.1618 25.8124 20.5375 23.5155 21.0867L22.7499 21.3063C22.7499 21.3063 22.9686 20.9768 23.4061 20.7572C27.8905 19.2196 31.3905 25.4797 21.8749 28.0057L22.0936 27.7861Z" fill="#5382A1"/>
<path d="M17.7186 0C17.7186 0 21.6561 3.95376 13.9999 9.99422C7.8749 14.9364 12.6874 17.6821 13.9999 20.8671C10.4999 17.5723 7.8749 14.7168 9.6249 12.0809C12.1405 8.23699 19.3593 6.26012 17.7186 0Z" fill="#E76F00"/>
<path d="M10.3906 37.8902C17.1719 38.3295 27.6719 37.5607 27.8906 34.3757C27.8906 34.3757 27.4531 35.5838 22.3125 36.5723C16.5156 37.6705 9.29688 37.5607 5.03125 36.7919C5.03125 36.7919 5.90625 37.5607 10.3906 37.8902Z" fill="#5382A1"/>
</g>
<defs>
<clipPath id="clip0_1022_87">
<rect width="28" height="38" fill="white"/>
</clipPath>
</defs>
</svg>
