<svg width="34" height="34" viewBox="0 0 34 34" fill="none" xmlns="http://www.w3.org/2000/svg">
<g clip-path="url(#clip0_1015_10)">
<path d="M0 0H34V34H0V0Z" fill="#F0DB4F"/>
<path d="M31.2173 25.8911C30.9684 24.3397 29.9568 23.0373 26.9608 21.8221C25.9201 21.3437 24.7599 21.0012 24.414 20.2126C24.2912 19.7536 24.2751 19.4951 24.3526 19.2171C24.5756 18.3154 25.6519 18.0342 26.5051 18.2928C27.0545 18.477 27.5749 18.9004 27.8884 19.5759C29.3557 18.6257 29.3524 18.6321 30.377 17.9793C30.0021 17.3976 29.8017 17.1293 29.556 16.8805C28.6737 15.8947 27.4714 15.3873 25.5484 15.4261C25.2156 15.4681 24.8795 15.5133 24.5465 15.5554C23.5867 15.7978 22.672 16.3019 22.1355 16.9774C20.526 18.8035 20.9849 21.9998 22.9435 23.3152C24.873 24.7632 27.7074 25.0928 28.0694 26.447C28.4216 28.105 26.8509 28.6414 25.2899 28.4508C24.1393 28.2116 23.4994 27.6267 22.8078 26.5633C21.5344 27.3002 21.5344 27.3002 20.2255 28.0533C20.5357 28.732 20.8621 29.039 21.3825 29.6272C23.8452 32.1255 30.0085 32.0027 31.1139 28.2213C31.1591 28.092 31.4565 27.2259 31.2173 25.8911ZM18.4834 15.6264H15.3032C15.3032 18.3736 15.2903 21.1013 15.2903 23.8485C15.2903 25.597 15.3808 27.2 15.0964 27.6913C14.631 28.6576 13.4255 28.538 12.876 28.3505C12.3169 28.0758 12.0325 27.6848 11.7029 27.1321C11.6124 26.9738 11.5445 26.851 11.5218 26.8413C10.6589 27.3681 9.79921 27.8981 8.93628 28.4249C9.36616 29.3072 9.99959 30.0732 10.8108 30.5709C12.0228 31.2981 13.6517 31.5211 15.3549 31.13C16.4635 30.8068 17.4201 30.1378 17.9211 29.1198C18.645 27.785 18.4899 26.169 18.4834 24.3818C18.4996 21.4665 18.4834 18.5513 18.4834 15.6264Z" fill="#323330"/>
</g>
<defs>
<clipPath id="clip0_1015_10">
<rect width="34" height="34" fill="white"/>
</clipPath>
</defs>
</svg>
