<svg width="33" height="34" viewBox="0 0 33 34" fill="none" xmlns="http://www.w3.org/2000/svg">
<g clip-path="url(#clip0_1022_79)">
<path d="M32.9871 7.67576L33 7.81742V15.1068C33 15.2871 32.8968 15.4674 32.7421 15.5576L26.6062 19.0864V26.0667C26.6062 26.247 26.516 26.4273 26.3484 26.5174L13.5738 33.8583L13.4835 33.9098L13.4449 33.9227C13.3546 33.9485 13.2644 33.9485 13.1742 33.9227L13.1226 33.9098L13.0453 33.8712L0.257764 26.5303C0.0901855 26.4273 -0.0129395 26.247 -0.0129395 26.0667V4.21136L-4.88279e-05 4.0697L0.0257324 4.01818L0.0644043 3.94091L0.0901855 3.88939L0.141748 3.825L0.193311 3.78636C0.219092 3.78636 0.231982 3.76061 0.257764 3.74773L6.65151 0.0772727C6.81909 -0.0257576 7.02534 -0.0257576 7.18003 0.0772727L13.5738 3.73485C13.5996 3.73485 13.6125 3.76061 13.6253 3.77348L13.6898 3.81212C13.6898 3.83788 13.7156 3.86364 13.7285 3.87652L13.7671 3.92803L13.8058 4.0053L13.8187 4.05682L13.8445 4.18561V17.8371L19.1554 14.7848V7.81742C19.1554 7.76591 19.1554 7.72727 19.1812 7.68864L19.1941 7.63712L19.2328 7.54697L19.2714 7.50833L19.3101 7.44394L19.3746 7.4053L19.4261 7.35379L25.8199 3.68333C25.9746 3.59318 26.1808 3.59318 26.3355 3.68333L32.7421 7.34091L32.8066 7.39242L32.8582 7.43106L32.9097 7.49545L32.9355 7.53409C32.9613 7.55985 32.9613 7.59848 32.9742 7.62424L33 7.66288L32.9871 7.67576ZM31.93 14.7977V8.7447L29.7 10.0326L26.6062 11.797V17.85L31.93 14.7977ZM25.5492 25.7447V19.6917L22.507 21.4303L13.8445 26.3758V32.4932L25.5492 25.7576V25.7447ZM1.05698 5.13864V25.7576L12.7746 32.4932V26.3758L6.65151 22.9114L6.59995 22.8598C6.57417 22.8598 6.56128 22.847 6.54839 22.8212L6.49683 22.7697L6.45815 22.7182L6.43237 22.6538L6.40659 22.5894V22.5121L6.38081 22.4477V8.19091L3.29995 6.41364L1.06987 5.12576L1.05698 5.13864ZM6.92222 1.14621L1.59839 4.22424L6.92222 7.27651L12.2332 4.22424L6.92222 1.14621ZM9.66792 20.2583L12.7617 18.4811V5.12576L10.5316 6.41364L7.43784 8.19091V21.5333L9.66792 20.2455V20.2583ZM26.0777 4.75227L20.7539 7.81742L26.0777 10.8826L31.4015 7.81742L26.0777 4.75227ZM25.5492 11.797L22.4554 10.0197L20.2253 8.73182V14.7848L23.3191 16.575L25.5492 17.8629V11.8098V11.797ZM13.3031 25.4485L21.1148 21.0053L25.0078 18.7773L19.6968 15.7121L13.5738 19.2409L7.99214 22.4477L13.3031 25.4485Z" fill="#FF2D20"/>
</g>
<defs>
<clipPath id="clip0_1022_79">
<rect width="33" height="34" fill="white"/>
</clipPath>
</defs>
</svg>
