<svg width="36" height="36" viewBox="0 0 36 36" fill="none" xmlns="http://www.w3.org/2000/svg">
<path fill-rule="evenodd" clip-rule="evenodd" d="M30.5341 23.4976C29.9893 24.3205 29.5762 25.3333 28.4697 25.3333C26.6067 25.3333 26.5066 22.4637 24.6422 22.4637C22.7789 22.4637 22.8802 25.3333 21.0177 25.3333C19.1544 25.3333 19.0546 22.4637 17.1902 22.4637C15.3269 22.4637 15.4279 25.3333 13.5657 25.3333C11.7024 25.3333 11.6026 22.4637 9.73931 22.4637C7.8749 22.4637 7.97587 25.3333 6.114 25.3333C5.52815 25.3333 5.11725 25.0498 4.77019 24.6611C3.43762 22.3439 2.67065 19.6281 2.67065 16.7242C2.67065 8.2243 9.24262 1.33368 17.3494 1.33368C25.4564 1.33368 32.0284 8.2243 32.0284 16.7245C32.0284 19.1545 31.4912 21.454 30.5341 23.4976V23.4976Z" fill="#FB70A9"/>
<path fill-rule="evenodd" clip-rule="evenodd" d="M11.4875 21.9783V28.3536C11.4875 29.4972 10.5591 30.4245 9.4144 30.4245C9.14226 30.4247 8.87275 30.3713 8.62126 30.2673C8.36977 30.1633 8.14123 30.0108 7.94871 29.8185C7.75618 29.6261 7.60345 29.3978 7.49923 29.1464C7.39501 28.895 7.34135 28.6255 7.34131 28.3534V20.6578C7.72803 19.9482 8.16959 19.334 8.96693 19.334C10.2635 19.334 10.7172 20.9624 11.4875 21.9786V21.9783ZM19.3183 22.311V32.3921C19.3183 32.6944 19.2586 32.9938 19.1429 33.273C19.0271 33.5523 18.8575 33.806 18.6437 34.0197C18.4299 34.2334 18.1761 34.403 17.8967 34.5186C17.6174 34.6342 17.3181 34.6937 17.0157 34.6936C15.7437 34.6936 14.712 33.6631 14.712 32.3921V20.9818C15.146 20.1456 15.5929 19.3337 16.5092 19.3337C17.9605 19.3337 18.3551 21.3705 19.3186 22.311H19.3183ZM26.6902 22.1254V29.4443C26.6902 30.5882 25.7621 31.5155 24.6174 31.5155C23.4724 31.5155 22.544 30.5882 22.544 29.4443V20.4488C22.9043 19.8315 23.334 19.3337 24.0526 19.3337C25.4139 19.3337 25.8456 21.1281 26.6902 22.1254Z" fill="#4E56A6"/>
<path fill-rule="evenodd" clip-rule="evenodd" d="M11.4875 23.9327C11.1193 23.4821 10.6842 23.148 10.0548 23.148C8.55968 23.148 8.2849 25.0313 7.34131 25.8795V17.7595C7.34135 17.4874 7.395 17.218 7.4992 16.9666C7.6034 16.7152 7.75611 16.4869 7.94861 16.2945C8.1411 16.1022 8.3696 15.9497 8.62106 15.8457C8.87252 15.7417 9.14201 15.6882 9.41412 15.6884C10.5591 15.6884 11.4875 16.6157 11.4875 17.7595V23.9327ZM19.3183 24.0775C18.9263 23.5558 18.4681 23.1483 17.7726 23.1483C16.1093 23.1483 15.9566 25.4784 14.712 26.1234V22.5318C14.712 21.2605 15.7437 20.2303 17.0157 20.2303C17.3181 20.2302 17.6175 20.2897 17.8968 20.4053C18.1762 20.5209 18.43 20.6904 18.6439 20.9041C18.8577 21.1178 19.0274 21.3715 19.1431 21.6508C19.2589 21.9301 19.3185 22.2295 19.3186 22.5318L19.3183 24.0775ZM26.6902 23.6745C26.3707 23.3604 25.9927 23.1483 25.4907 23.1483C23.8791 23.1483 23.6856 25.3356 22.544 26.0573V18.7689C22.544 18.2191 22.7624 17.6918 23.1512 17.303C23.54 16.9143 24.0673 16.6959 24.6171 16.6959C25.1669 16.6959 25.6942 16.9143 26.083 17.303C26.4718 17.6918 26.6902 18.2191 26.6902 18.7689V23.6745Z" fill="black" fill-opacity="0.298"/>
<path fill-rule="evenodd" clip-rule="evenodd" d="M30.5341 23.4976C29.9893 24.3205 29.5762 25.3333 28.4697 25.3333C26.6067 25.3333 26.5066 22.4637 24.6422 22.4637C22.7789 22.4637 22.8802 25.3333 21.0177 25.3333C19.1544 25.3333 19.0546 22.4637 17.1902 22.4637C15.3269 22.4637 15.4279 25.3333 13.5657 25.3333C11.7024 25.3333 11.6026 22.4637 9.73931 22.4637C7.8749 22.4637 7.97587 25.3333 6.114 25.3333C5.52815 25.3333 5.11725 25.0498 4.77019 24.6611C3.43762 22.3439 2.67065 19.6281 2.67065 16.7242C2.67065 8.2243 9.24262 1.33368 17.3494 1.33368C25.4564 1.33368 32.0284 8.2243 32.0284 16.7245C32.0284 19.1545 31.4912 21.454 30.5341 23.4976V23.4976Z" fill="#FB70A9"/>
<path fill-rule="evenodd" clip-rule="evenodd" d="M27.3579 25.0268C31.2043 19.3084 31.3033 12.967 27.6558 5.99963C30.3594 8.76826 32.0283 12.5663 32.0283 16.7574C32.0283 19.179 31.4715 21.4684 30.4792 23.5052C29.9156 24.3236 29.4861 25.3333 28.3389 25.3333C27.9878 25.3366 27.6446 25.2294 27.3579 25.0268Z" fill="#E24CA6"/>
<path fill-rule="evenodd" clip-rule="evenodd" d="M16.5628 20.5642C21.6675 20.5642 23.8163 17.6054 23.8163 13.4035C23.8163 9.20111 20.5687 5.33392 16.5628 5.33392C12.5564 5.33392 9.30884 9.20111 9.30884 13.4033C9.30884 17.6057 11.4573 20.5642 16.5628 20.5642Z" fill="white"/>
<path fill-rule="evenodd" clip-rule="evenodd" d="M17.3321 10.6414C17.3321 12.2979 16.1137 13.6417 14.6119 13.6417C13.1089 13.6417 11.8916 12.2982 11.8916 10.6414C11.8916 8.9848 13.1089 7.64099 14.6119 7.64099C16.1137 7.64099 17.3321 8.98452 17.3321 10.6414Z" fill="#030776"/>
<path fill-rule="evenodd" clip-rule="evenodd" d="M15.5183 9.94919C15.5183 10.7139 14.9097 11.3335 14.1582 11.3335C13.4067 11.3335 12.7981 10.7139 12.7981 9.94919C12.7981 9.18447 13.4067 8.56488 14.1582 8.56488C14.9097 8.56488 15.5183 9.18447 15.5183 9.94919Z" fill="white"/>
</svg>
