<svg width="34" height="34" viewBox="0 0 34 34" fill="none" xmlns="http://www.w3.org/2000/svg">
<g clip-path="url(#clip0_1022_114)">
<path d="M16.8938 0.0924072L17.8012 1.79666C18.0052 2.11116 18.2262 2.38953 18.4865 2.64878C19.2462 3.40847 19.9676 4.20428 20.6158 5.05641C22.1532 7.07516 23.1902 9.31703 23.9308 11.7417C24.3749 13.2228 24.6161 14.7422 24.6341 16.2785C24.7085 20.8717 23.1339 24.8157 19.9591 28.0935C19.4406 28.612 18.886 29.0923 18.291 29.5194C17.9765 29.5194 17.8278 29.2782 17.6981 29.0562C17.4569 28.6492 17.3093 28.1849 17.2349 27.7227C17.1233 27.167 17.05 26.6113 17.0861 26.0376V25.7783C17.0606 25.7231 16.7833 0.223095 16.8938 0.0924072Z" fill="#599636"/>
<path d="M16.8938 0.036126C16.8566 -0.038249 16.8194 0.0180634 16.7822 0.0541885C16.8003 0.426063 16.6707 0.757564 16.4677 1.07419C16.2446 1.38869 15.9492 1.62988 15.6528 1.88913C14.0059 3.315 12.7097 5.03731 11.6716 6.96363C10.2904 9.55613 9.57848 12.3346 9.3766 15.2596C9.28416 16.3147 9.71023 20.0377 10.0428 21.1119C10.9502 23.9636 12.58 26.3532 14.6912 28.4272C15.2097 28.9266 15.7644 29.3898 16.3381 29.835C16.5049 29.835 16.523 29.6863 16.5612 29.5758C16.6344 29.3393 16.6901 29.0978 16.728 28.8533L17.0999 26.0759L16.8938 0.036126Z" fill="#6CAC48"/>
<path d="M17.8012 30.6478C17.8384 30.2228 18.0424 29.8701 18.2644 29.5184C18.0413 29.426 17.8756 29.2421 17.7459 29.0371C17.6344 28.8522 17.5419 28.6301 17.4697 28.4261C17.2104 27.6484 17.1552 26.8324 17.0808 26.0376V25.5563C16.9884 25.6307 16.9693 26.2597 16.9693 26.3532C16.9152 27.1932 16.8037 28.0285 16.6356 28.8533C16.5804 29.1869 16.5432 29.5195 16.3381 29.8159C16.3381 29.8531 16.3381 29.8903 16.3562 29.9455C16.6898 30.9273 16.7812 31.9271 16.8375 32.946V33.3179C16.8375 33.762 16.8194 33.6685 17.1881 33.8173C17.3369 33.8725 17.5026 33.8916 17.6514 34.0021C17.7629 34.0021 17.781 33.9097 17.781 33.8353L17.7258 33.2244V31.5201C17.7077 31.2226 17.7629 30.9273 17.8001 30.6489L17.8012 30.6478Z" fill="#C2BFBF"/>
</g>
<defs>
<clipPath id="clip0_1022_114">
<rect width="34" height="34" fill="white"/>
</clipPath>
</defs>
</svg>
