<svg width="35" height="34" viewBox="0 0 35 34" fill="none" xmlns="http://www.w3.org/2000/svg">
<g clip-path="url(#clip0_1022_72)">
<path d="M32.2655 26.1746C30.3514 26.1746 28.8475 26.3095 27.6171 26.8492C27.2069 26.9841 26.66 26.9841 26.66 27.3889L27.0702 28.1984C27.3436 28.6032 27.7538 29.2778 28.3007 29.6825L29.8046 30.7619L32.6757 32.1111L34.1796 33.3254L34.9999 33.8651L34.5897 33.0555L33.9061 32.3809C33.2225 31.4365 32.4022 30.627 31.4452 29.9524C30.6249 29.5476 28.9843 28.7381 28.7108 27.9286H28.5741L30.2147 27.5238L32.6757 27.119L33.7694 26.8492V26.5793L32.5389 25.2301C31.4452 24.1508 30.078 23.2063 28.7108 22.2619L26.2499 21.1825C25.9764 21.0476 25.4296 20.9127 25.2928 20.6428L24.3358 18.8889L22.285 14.8413L21.1913 12.1428C18.7303 8.09522 15.996 5.66665 11.8944 3.373C11.0741 2.83332 9.98035 2.6984 8.8866 2.42856L7.10925 2.29363L6.0155 1.48411C4.64832 0.674587 1.09363 -1.2143 0.136598 1.21427C-0.546995 2.6984 1.09363 4.18252 1.6405 4.99205L2.87097 6.74602L3.28113 7.9603C3.69129 9.03967 3.96472 10.254 4.5116 11.1984L5.33191 12.5476C5.60535 12.8174 5.87879 12.9524 6.0155 13.3571C5.60535 13.8968 5.60535 14.5714 5.46863 15.1111C4.5116 17.8095 4.92175 21.0476 6.15222 23.0714C6.42566 23.6111 7.38269 24.9603 8.61316 24.4206C9.70691 24.0159 9.43347 22.6666 9.70691 21.4524L9.84363 20.9127L10.9374 22.8016C11.621 24.0159 12.8514 25.2301 13.9452 26.0397C14.4921 26.4444 15.0389 27.119 15.7225 27.3889L15.1757 26.8492L13.9452 25.5C12.8514 24.1508 12.0311 22.6666 11.2108 21.1825L10.2538 18.8889L9.84363 18.0793C9.43347 18.619 8.8866 19.0238 8.61316 19.6984C8.203 20.6428 8.203 21.992 8.06629 23.2063H7.92957C7.10925 23.0714 6.83582 22.2619 6.56238 21.5873C5.87879 19.9682 5.74207 17.2698 6.42566 15.3809C6.56238 14.8413 7.24597 13.3571 6.97254 12.8174C6.83582 12.4127 6.42566 12.1428 6.15222 11.873L5.19519 10.254L3.828 6.20633L2.59754 4.45237C2.18738 3.77776 1.6405 3.373 1.23035 2.56348C1.09363 2.29363 0.956911 1.88887 1.23035 1.61903L1.50379 1.34919C1.77722 1.07935 2.73425 1.34919 3.00769 1.48411C3.828 1.88887 4.64832 2.15871 5.33191 2.6984L6.42566 3.50792H6.97254C7.79285 3.64284 8.61316 3.50792 9.29675 3.77776C10.5272 4.18252 11.7577 4.72221 12.7147 5.39681C15.8593 7.2857 18.4569 10.119 20.0975 13.3571C20.5077 13.8968 20.5077 14.4365 20.7811 14.9762L22.4218 18.4841C22.9686 19.5635 23.3788 20.6428 24.0624 21.5873C24.4725 22.127 25.9764 22.3968 26.5233 22.6666L28.1639 23.2063L30.6249 24.8254C30.8983 25.0952 32.1288 25.7698 32.2655 26.1746Z" fill="#00546B"/>
<path d="M7.92969 5.80157L6.97266 5.9365L7.79297 6.88094L8.33984 8.09523V7.9603C8.75 7.82538 8.88672 7.42062 8.88672 6.88094L8.61328 6.34126L7.92969 5.80157Z" fill="#00546B"/>
</g>
<defs>
<clipPath id="clip0_1022_72">
<rect width="35" height="34" fill="white"/>
</clipPath>
</defs>
</svg>
