<svg width="48" height="24" viewBox="0 0 48 24" fill="none" xmlns="http://www.w3.org/2000/svg">
<path d="M3.63792 5.33902H10.4558C12.457 5.35582 13.907 5.93278 14.8061 7.06894C15.7051 8.2051 16.0018 9.75694 15.6965 11.7245C15.5779 12.6235 15.3149 13.5053 14.9078 14.3702C14.5122 15.2431 13.9605 16.0362 13.2797 16.7107C12.4315 17.5925 11.5243 18.1521 10.5576 18.3897C9.575 18.6291 8.56702 18.7487 7.55568 18.7459H4.50288L3.53616 23.5795H0L3.63792 5.33902ZM6.6144 8.23918L5.088 15.8712C5.18976 15.888 5.29152 15.8966 5.39328 15.8966H5.74944C7.3776 15.9134 8.73456 15.7526 9.81984 15.4133C10.9051 15.0571 11.6347 13.8192 12.0077 11.699C12.313 9.91822 12.0077 8.89198 11.0918 8.62078C10.1928 8.34958 9.06528 8.22238 7.70832 8.23918C7.5048 8.25598 7.30992 8.26462 7.1232 8.26462H6.58896L6.6144 8.23918ZM19.7246 0.47998H23.2354L22.2432 5.33902H25.3978C27.1277 5.3731 28.4165 5.72926 29.2646 6.4075C30.1296 7.08574 30.384 8.37502 30.0278 10.2744L28.3234 18.7459H24.7618L26.3899 10.656C26.5594 9.80782 26.5085 9.2059 26.2373 8.84974C25.9661 8.49358 25.381 8.3155 24.4819 8.3155L21.6581 8.29006L19.572 18.7459H16.0613L19.7246 0.47998ZM33.7978 5.33902H40.6157C42.6168 5.35582 44.0669 5.93278 44.9659 7.06894C45.865 8.2051 46.1616 9.75694 45.8563 11.7245C45.7378 12.6235 45.4747 13.5053 45.0677 14.3702C44.6721 15.2431 44.1203 16.0362 43.4395 16.7107C42.5914 17.5925 41.6842 18.1521 40.7174 18.3897C39.7348 18.6291 38.7269 18.7487 37.7155 18.7459H34.6627L33.696 23.5795H30.1598L33.7978 5.33902ZM36.7742 8.23918L35.2478 15.8712C35.3496 15.888 35.4514 15.8966 35.5531 15.8966H35.9093C37.5374 15.9134 38.8944 15.7526 39.9797 15.4133C41.065 15.0571 41.7946 13.8192 42.1675 11.699C42.4728 9.91822 42.1675 8.89198 41.2517 8.62078C40.3526 8.34958 39.2251 8.22238 37.8682 8.23918C37.6646 8.25598 37.4698 8.26462 37.283 8.26462H36.7488L36.7742 8.23918Z" fill="#777BB3"/>
</svg>
