<svg width="42" height="37" viewBox="0 0 42 37" fill="none" xmlns="http://www.w3.org/2000/svg">
<g filter="url(#filter0_d_196_239)">
<path d="M40.179 18.0039C40.179 15.4747 37.0117 13.0778 32.1556 11.5914C33.2763 6.64202 32.7782 2.70428 30.5837 1.44358C30.0778 1.14786 29.4864 1.00778 28.8405 1.00778V2.74319C29.1984 2.74319 29.4864 2.81323 29.7276 2.94553C30.786 3.55253 31.2451 5.86381 30.8872 8.83658C30.8016 9.56809 30.6615 10.3385 30.4903 11.1245C28.965 10.751 27.2996 10.463 25.5486 10.2763C24.498 8.83658 23.4086 7.52918 22.3113 6.38521C24.8482 4.02724 27.2296 2.73541 28.8482 2.73541V1C26.7082 1 23.9066 2.52529 21.0739 5.17121C18.2412 2.54086 15.4397 1.03113 13.2996 1.03113V2.76654C14.9105 2.76654 17.2996 4.05058 19.8366 6.393C18.7471 7.53696 17.6576 8.83658 16.6226 10.2763C14.8638 10.463 13.1984 10.751 11.6732 11.1323C11.4942 10.3541 11.3619 9.59922 11.2685 8.87549C10.9027 5.90272 11.3541 3.59144 12.4047 2.97665C12.6381 2.83658 12.9416 2.77432 13.2996 2.77432V1.03891C12.6459 1.03891 12.0545 1.17899 11.5409 1.47471C9.35408 2.73541 8.86381 6.66537 9.99222 11.5992C5.15175 13.0934 2 15.4825 2 18.0039C2 20.5331 5.16731 22.93 10.0233 24.4163C8.90272 29.3658 9.40078 33.3035 11.5953 34.5642C12.1012 34.8599 12.6926 35 13.3463 35C15.4864 35 18.2879 33.4747 21.1206 30.8288C23.9533 33.4591 26.7549 34.9689 28.8949 34.9689C29.5486 34.9689 30.1401 34.8288 30.6537 34.5331C32.8405 33.2724 33.3307 29.3424 32.2023 24.4086C37.0272 22.9222 40.179 20.5253 40.179 18.0039ZM30.0467 12.8132C29.7587 13.8171 29.4008 14.8521 28.9961 15.8872C28.677 15.2646 28.3424 14.642 27.9766 14.0195C27.6187 13.3969 27.2374 12.7899 26.856 12.1984C27.9611 12.3619 29.0272 12.5642 30.0467 12.8132ZM26.4825 21.1012C25.8755 22.1517 25.2529 23.1479 24.607 24.0739C23.4475 24.1751 22.2724 24.2296 21.0895 24.2296C19.9144 24.2296 18.7393 24.1751 17.5875 24.0817C16.9416 23.1556 16.3113 22.1673 15.7043 21.1245C15.1128 20.1051 14.5759 19.07 14.0856 18.0272C14.5681 16.9844 15.1128 15.9416 15.6965 14.9222C16.3035 13.8716 16.9261 12.8755 17.572 11.9494C18.7315 11.8482 19.9066 11.7938 21.0895 11.7938C22.2646 11.7938 23.4397 11.8482 24.5914 11.9416C25.2374 12.8677 25.8677 13.856 26.4747 14.8988C27.0661 15.9183 27.6031 16.9533 28.0934 17.9961C27.6031 19.0389 27.0661 20.0817 26.4825 21.1012ZM28.9961 20.0895C29.4163 21.1323 29.7743 22.1751 30.07 23.1868C29.0506 23.4358 27.9767 23.6459 26.8638 23.8093C27.2451 23.2101 27.6265 22.5953 27.9844 21.965C28.3424 21.3424 28.677 20.7121 28.9961 20.0895ZM21.1051 28.393C20.3813 27.6459 19.6576 26.8132 18.9416 25.9027C19.642 25.9339 20.358 25.9572 21.0817 25.9572C21.8132 25.9572 22.537 25.9416 23.2451 25.9027C22.5447 26.8132 21.821 27.6459 21.1051 28.393ZM15.3152 23.8093C14.2101 23.6459 13.144 23.4436 12.1245 23.1946C12.4124 22.1907 12.7704 21.1556 13.1751 20.1206C13.4942 20.7432 13.8288 21.3658 14.1946 21.9883C14.5603 22.6109 14.9338 23.2179 15.3152 23.8093ZM21.0661 7.61479C21.7899 8.36187 22.5136 9.19455 23.2296 10.1051C22.5292 10.0739 21.8132 10.0506 21.0895 10.0506C20.358 10.0506 19.6342 10.0661 18.9261 10.1051C19.6265 9.19455 20.3502 8.36187 21.0661 7.61479ZM15.3074 12.1984C14.9261 12.7977 14.5447 13.4125 14.1868 14.0428C13.8288 14.6654 13.4942 15.2879 13.1751 15.9105C12.7549 14.8677 12.3969 13.8249 12.1012 12.8132C13.1206 12.572 14.1946 12.3619 15.3074 12.1984ZM8.26459 21.9416C5.50973 20.7665 3.72763 19.2257 3.72763 18.0039C3.72763 16.7821 5.50973 15.2335 8.26459 14.0661C8.93385 13.7782 9.66537 13.5214 10.4202 13.2802C10.8638 14.8054 11.4475 16.393 12.1712 18.0195C11.4553 19.6381 10.8794 21.2179 10.4436 22.7354C9.67315 22.4942 8.94163 22.2296 8.26459 21.9416ZM12.4514 33.0623C11.393 32.4553 10.9339 30.144 11.2918 27.1712C11.3774 26.4397 11.5175 25.6693 11.6887 24.8833C13.214 25.2568 14.8794 25.5447 16.6303 25.7315C17.6809 27.1712 18.7704 28.4786 19.8677 29.6226C17.3307 31.9805 14.9494 33.2724 13.3307 33.2724C12.9805 33.2646 12.6848 33.1946 12.4514 33.0623ZM30.9105 27.1323C31.2763 30.1051 30.8249 32.4163 29.7743 33.0311C29.5408 33.1712 29.2373 33.2335 28.8794 33.2335C27.2685 33.2335 24.8794 31.9494 22.3424 29.607C23.4319 28.463 24.5214 27.1634 25.5564 25.7237C27.3152 25.537 28.9805 25.249 30.5058 24.8677C30.6848 25.6537 30.8249 26.4086 30.9105 27.1323ZM33.9066 21.9416C33.2373 22.2296 32.5058 22.4864 31.751 22.7276C31.3074 21.2023 30.7237 19.6148 30 17.9883C30.7159 16.3696 31.2918 14.7899 31.7276 13.2724C32.4981 13.5136 33.2296 13.7782 33.9144 14.0661C36.6693 15.2412 38.4514 16.7821 38.4514 18.0039C38.4436 19.2257 36.6615 20.7743 33.9066 21.9416Z" fill="#61DAFB"/>
</g>
<path d="M21.0808 21.5601C23.045 21.5601 24.6373 19.9678 24.6373 18.0037C24.6373 16.0395 23.045 14.4473 21.0808 14.4473C19.1167 14.4473 17.5244 16.0395 17.5244 18.0037C17.5244 19.9678 19.1167 21.5601 21.0808 21.5601Z" fill="#61DAFB"/>
<defs>
<filter id="filter0_d_196_239" x="0.5" y="0" width="41.179" height="37" filterUnits="userSpaceOnUse" color-interpolation-filters="sRGB">
<feFlood flood-opacity="0" result="BackgroundImageFix"/>
<feColorMatrix in="SourceAlpha" type="matrix" values="0 0 0 0 0 0 0 0 0 0 0 0 0 0 0 0 0 0 127 0" result="hardAlpha"/>
<feOffset dy="0.5"/>
<feGaussianBlur stdDeviation="0.75"/>
<feComposite in2="hardAlpha" operator="out"/>
<feColorMatrix type="matrix" values="0 0 0 0 0 0 0 0 0 0 0 0 0 0 0 0 0 0 0.15 0"/>
<feBlend mode="normal" in2="BackgroundImageFix" result="effect1_dropShadow_196_239"/>
<feBlend mode="normal" in="SourceGraphic" in2="effect1_dropShadow_196_239" result="shape"/>
</filter>
</defs>
</svg>
