<svg width="34" height="34" viewBox="0 0 34 34" fill="none" xmlns="http://www.w3.org/2000/svg">
<g clip-path="url(#clip0_1022_103)">
<path d="M34 17C34 26.3897 26.3897 34 17 34C7.61033 34 0 26.3897 0 17C0 7.61033 7.61033 0 17 0C26.3897 0 34 7.61033 34 17ZM24.4332 6.28858C22.7049 6.34808 21.199 7.3015 20.077 8.61758C18.8332 10.0626 18.0072 11.7753 17.4123 13.5207C16.3455 12.6508 15.5252 11.5175 13.8153 11.0259C12.4468 10.6052 10.9607 10.8772 9.83025 11.7541C9.24942 12.206 8.82442 12.8265 8.6105 13.5306C8.1005 15.1966 9.15025 16.6827 9.62908 17.2139L10.6732 18.3331C10.8857 18.5512 11.4084 19.1264 11.1534 19.9453C10.88 20.8392 9.80617 21.4143 8.69975 21.0772C8.20675 20.927 7.49842 20.5587 7.65992 20.043C7.72367 19.8305 7.87525 19.6704 7.95742 19.4891C8.03108 19.3332 8.0665 19.2142 8.092 19.1462C8.29175 18.4875 8.01692 17.6304 7.31142 17.4137C6.65267 17.2111 5.98117 17.3712 5.71767 18.2155C5.42158 19.1788 5.88342 20.9256 8.35267 21.6849C11.2427 22.5746 13.6864 20.9992 14.0321 18.9479C14.2488 17.663 13.6708 16.7068 12.6069 15.4813L11.7399 14.5223C11.2143 13.9981 11.0358 13.1027 11.5784 12.4185C12.0374 11.8391 12.6905 11.5912 13.7587 11.8816C15.3212 12.3066 16.0168 13.3875 17.1757 14.2616C16.6968 15.8341 16.3823 17.4108 16.1004 18.8261L15.9262 19.8829C15.0974 24.2321 14.4628 26.622 12.818 27.9947C12.4865 28.2299 12.0105 28.5841 11.2979 28.6096C10.9211 28.6167 10.7992 28.3602 10.795 28.2455C10.7865 27.9848 11.0075 27.8616 11.1562 27.7454C11.3744 27.6278 11.7087 27.4281 11.6832 26.7906C11.6606 26.0369 11.0372 25.3824 10.1334 25.4122C9.45767 25.4362 8.42917 26.0709 8.46742 27.234C8.50708 28.4382 9.62767 29.3377 11.3177 29.2797C12.2216 29.2499 14.2389 28.8816 16.2251 26.5186C18.5385 23.8113 19.1859 20.7088 19.6732 18.4351L20.2158 15.4374C20.5176 15.4714 20.8406 15.4969 21.1933 15.5054C24.072 15.5677 25.5127 14.0746 25.534 12.9894C25.5482 12.3321 25.1033 11.6847 24.48 11.7002C23.9332 11.713 23.4628 12.0941 23.3382 12.6267C23.205 13.2331 24.2533 13.7785 23.4345 14.3112C22.8537 14.688 21.811 14.9515 20.3405 14.7362L20.6068 13.26C21.1537 10.4607 21.8238 7.01675 24.3766 6.93175C24.5636 6.92183 25.2436 6.94025 25.2592 7.38933C25.2634 7.53808 25.228 7.57917 25.0509 7.92058C24.888 8.14017 24.8044 8.40933 24.8129 8.68133C24.837 9.39533 25.3796 9.86567 26.1687 9.83733C27.2212 9.80475 27.5216 8.77767 27.5074 8.25208C27.4621 7.01392 26.1587 6.23475 24.4332 6.28858Z" fill="black"/>
</g>
<defs>
<clipPath id="clip0_1022_103">
<rect width="34" height="34" fill="white"/>
</clipPath>
</defs>
</svg>
