<svg width="32" height="20" viewBox="0 0 32 20" fill="none" xmlns="http://www.w3.org/2000/svg">
<mask id="mask0_196_243" style="mask-type:luminance" maskUnits="userSpaceOnUse" x="0" y="0" width="32" height="20">
<path d="M0 0H32V19.6364H0V0Z" fill="white"/>
</mask>
<g mask="url(#mask0_196_243)">
<path fill-rule="evenodd" clip-rule="evenodd" d="M16 0C11.7333 0 9.06667 2.18182 8 6.54545C9.6 4.36364 11.4667 3.54545 13.6 4.09091C14.8172 4.40182 15.6871 5.30545 16.6501 6.30485C18.2187 7.93333 20.0344 9.81818 24 9.81818C28.2667 9.81818 30.9333 7.63636 32 3.27273C30.4 5.45455 28.5333 6.27273 26.4 5.72727C25.1828 5.41636 24.3129 4.51273 23.3499 3.51333C21.7813 1.88485 19.9656 0 16 0ZM8 9.81818C3.73333 9.81818 1.06667 12 0 16.3636C1.6 14.1818 3.46667 13.3636 5.6 13.9091C6.81718 14.2206 7.68711 15.1236 8.65007 16.123C10.2187 17.7515 12.0344 19.6364 16 19.6364C20.2667 19.6364 22.9333 17.4545 24 13.0909C22.4 15.2727 20.5333 16.0909 18.4 15.5455C17.1828 15.2345 16.3129 14.3309 15.3499 13.3315C13.7813 11.703 11.9656 9.81818 8 9.81818Z" fill="#38BDF8"/>
</g>
</svg>
