<svg width="34" height="34" viewBox="0 0 34 34" fill="none" xmlns="http://www.w3.org/2000/svg">
<g clip-path="url(#clip0_1079_96)">
<path d="M30.6797 0L3.32031 0C1.48655 0 0 1.48655 0 3.32031L0 30.6797C0 32.5134 1.48655 34 3.32031 34H30.6797C32.5134 34 34 32.5134 34 30.6797V3.32031C34 1.48655 32.5134 0 30.6797 0Z" fill="#3178C6"/>
<path d="M30.6797 0L3.32031 0C1.48655 0 0 1.48655 0 3.32031L0 30.6797C0 32.5134 1.48655 34 3.32031 34H30.6797C32.5134 34 34 32.5134 34 30.6797V3.32031C34 1.48655 32.5134 0 30.6797 0Z" fill="#3178C6"/>
<path fill-rule="evenodd" clip-rule="evenodd" d="M21.0467 27.0555V30.3799C21.5871 30.6569 22.2263 30.8646 22.9642 31.0032C23.7021 31.1417 24.4798 31.2109 25.2974 31.2109C26.0942 31.2109 26.8511 31.1348 27.5682 30.9824C28.2853 30.83 28.9141 30.5789 29.4546 30.2292C29.995 29.8795 30.4228 29.4224 30.7381 28.8579C31.0533 28.2934 31.2109 27.5957 31.2109 26.7646C31.2109 26.1621 31.1209 25.634 30.9407 25.1804C30.7606 24.7268 30.5008 24.3233 30.1613 23.9701C29.8218 23.6169 29.4147 23.3 28.9401 23.0195C28.4655 22.739 27.9303 22.4741 27.3344 22.2248C26.8979 22.0447 26.5065 21.8699 26.16 21.7002C25.8136 21.5305 25.5191 21.3574 25.2766 21.1808C25.0341 21.0042 24.847 20.8172 24.7154 20.6198C24.5838 20.4224 24.5179 20.1991 24.5179 19.9497C24.5179 19.7212 24.5768 19.5151 24.6946 19.3316C24.8124 19.148 24.9787 18.9905 25.1935 18.8589C25.4083 18.7274 25.6715 18.6252 25.9833 18.5524C26.2951 18.4797 26.6415 18.4434 27.0226 18.4434C27.2997 18.4434 27.5925 18.4642 27.9008 18.5057C28.2091 18.5473 28.5192 18.6113 28.831 18.6979C29.1428 18.7845 29.4459 18.8936 29.7404 19.0251C30.0348 19.1567 30.3068 19.3091 30.5562 19.4823V16.376C30.0504 16.1821 29.4979 16.0384 28.8985 15.9449C28.2992 15.8514 27.6115 15.8047 26.8356 15.8047C26.0457 15.8047 25.2974 15.8896 24.5907 16.0592C23.884 16.2289 23.2622 16.4938 22.7251 16.8539C22.1882 17.2141 21.7639 17.6729 21.4521 18.2304C21.1403 18.7879 20.9844 19.4545 20.9844 20.2302C20.9844 21.2206 21.2702 22.0655 21.8418 22.7651C22.4134 23.4645 23.2812 24.0567 24.4452 24.5415C24.9025 24.7285 25.3286 24.912 25.7235 25.0921C26.1184 25.2722 26.4597 25.4592 26.7472 25.6531C27.0347 25.847 27.2616 26.0582 27.428 26.2868C27.5943 26.5153 27.6774 26.775 27.6774 27.0659C27.6774 27.2806 27.6254 27.4797 27.5215 27.6632C27.4175 27.8468 27.2599 28.006 27.0486 28.1411C26.8373 28.2762 26.574 28.3818 26.2588 28.4579C25.9435 28.5342 25.5746 28.5722 25.1519 28.5722C24.4313 28.5722 23.7177 28.4458 23.011 28.193C22.3043 27.9403 21.6495 27.5611 21.0467 27.0555ZM15.458 18.8648H19.7227V16.1367H7.83594V18.8648H12.0797V31.0117H15.458V18.8648Z" fill="white"/>
</g>
<defs>
<clipPath id="clip0_1079_96">
<rect width="34" height="34" fill="white"/>
</clipPath>
</defs>
</svg>
